<svg width="1552" height="757" viewBox="0 0 1552 757" fill="none" xmlns="http://www.w3.org/2000/svg">
<path opacity="0.2" fill-rule="evenodd" clip-rule="evenodd" d="M1543.97 -632.986C1580.34 -485.776 1468.17 -308.548 1417.56 -138.947C1365.63 35.0446 1446.54 262.095 1244.09 371.912C1010.75 498.484 844.495 201.881 602.033 303.419C293.707 432.541 173.941 944.226 -118.99 942.744C-381.262 941.416 -112.454 524.661 -72.0198 300.008C-51.8617 188.01 29.377 78.2143 56.9729 -34.9065C87.7415 -161.033 40.8134 -267.851 97.6482 -395.494C199.746 -624.792 246.287 -912.847 511.774 -1056.33C762.02 -1191.57 1010.46 -1074.86 1206.18 -994.59C1379.74 -923.407 1503.11 -798.394 1543.97 -632.986Z" stroke="black" stroke-dasharray="6 6"/>
</svg>
